:version 1.10
:name ASF
:units
  mass 1
  length 1
  angle deg
:documentation
  ASF file generated by Kaydara
:root
  axis xyz
  order  tx ty tz rx ry rz
  position 0 0 0
  orientation 0 0 0
:bonedata
  begin
    id 1
    name RightUpLegDummy
    direction -1 2.30186e-007 8.31532e-007
    length 4.46685
    axis 0 0 0 xyz
  end
  begin
    id 2
    name RightUpLeg
    direction -2.30187e-007 -1 1.24343e-010
    length 16.4045
    axis -3.49089 -0.000906625 0.000286804 xyz
    dof rx ry rz
  end
  begin
    id 3
    name RightLeg
    direction -2.30181e-007 -1 -4.17157e-009
    length 17.5097
    axis 3.68512 0.0193738 -0.131023 xyz
    dof rx ry rz
  end
  begin
    id 4
    name RightFoot
    direction 8.31421e-007 -4.51202e-011 1
    length 6.49508
    axis 4.81691e-005 -0.120479 -0.188788 xyz
    dof rx ry rz
  end
  begin
    id 5
    name RightToes
    direction 0.00124746 -0.014064 0.9999
    length 3.85082
    axis 0.000481921 0.542163 -0.142578 xyz
    dof rx ry rz
  end
  begin
    id 6
    name SpineDummy
    direction 0.0717043 0.9409 -0.331007
    length 10.0032
    axis 0 0 0 xyz
  end
  begin
    id 7
    name Spine
    direction 2.30186e-007 1 4.58806e-011
    length 9.84055
    axis -0.001389 0.000121418 2.40972e-006 xyz
    dof rx ry rz
  end
  begin
    id 8
    name Spine1
    direction 0 0 0
    length 0
    axis -0.001389 0.000121451 1.30017e-006 xyz
    dof rx ry rz
  end
  begin
    id 9
    name HEadDummy
    direction -0.00347485 0.950688 -0.310128
    length 8.00997
    axis -0.001389 0.000121451 1.30017e-006 xyz
  end
  begin
    id 10
    name HEad
    direction -0.0222688 0.980941 0.193023
    length 5.12695
    axis -0.001389 0.000121451 1.30017e-006 xyz
    dof rx ry rz
  end
  begin
    id 11
    name LeftShoulder1Dummy
    direction 0.988871 0.146793 -0.0242004
    length 3.5792
    axis -0.001389 0.000121451 1.30017e-006 xyz
  end
  begin
    id 12
    name LeftShoulder1
    direction 0.993832 0.108932 0.020779
    length 4.16823
    axis -0.001389 0.000121451 1.30017e-006 xyz
    dof rx ry rz
  end
  begin
    id 13
    name LeftArm
    direction 1 3.44807e-006 -8.31404e-007
    length 9.91437
    axis -23.1894 0.134784 0.967509 xyz
    dof rx ry rz
  end
  begin
    id 14
    name LeftForeArm
    direction 1 3.44842e-006 -8.31581e-007
    length 9.08575
    axis -9.91835 -0.06569 -0.177793 xyz
    dof rx ry rz
  end
  begin
    id 15
    name LeftHand
    direction 0.992938 -0.0411636 0.11126
    length 5.32135
    axis -0.00960232 -0.00340091 0.185173 xyz
    dof rx ry rz
  end
  begin
    id 16
    name RightShoulderDummy
    direction -0.988871 0.146793 -0.0241962
    length 3.5792
    axis -0.001389 0.000121451 1.30017e-006 xyz
  end
  begin
    id 17
    name RightShoulder
    direction -0.993832 0.108933 0.0207785
    length 4.16823
    axis 0.215806 0.000203643 -0.0068026 xyz
    dof rx ry rz
  end
  begin
    id 18
    name RightArm
    direction -1 3.90912e-006 8.31284e-007
    length 9.91437
    axis -23.2009 -0.134239 -0.964101 xyz
    dof rx ry rz
  end
  begin
    id 19
    name RightForeArm
    direction -1 3.90882e-006 8.31502e-007
    length 9.08575
    axis -9.92322 0.0658061 0.178867 xyz
    dof rx ry rz
  end
  begin
    id 20
    name RightHand
    direction -0.992843 -0.0414603 0.112003
    length 5.28593
    axis -0.00960638 0.00330671 -0.185228 xyz
    dof rx ry rz
  end
  begin
    id 21
    name LeftUpLegDummy
    direction 1 -2.30186e-007 -8.31532e-007
    length 4.46685
    axis 0 0 0 xyz
  end
  begin
    id 22
    name LeftUpLeg
    direction -2.30187e-007 -1 6.00931e-010
    length 16.4045
    axis -3.48766 0.00143442 -0.000524262 xyz
    dof rx ry rz
  end
  begin
    id 23
    name LeftLeg
    direction -2.30187e-007 -1 1.6669e-009
    length 17.5097
    axis 3.68178 -0.00654042 -0.000285133 xyz
    dof rx ry rz
  end
  begin
    id 24
    name LeftFoot
    direction 8.31532e-007 -4.54478e-011 1
    length 6.49508
    axis 1.87233e-006 4.66016e-005 -8.6538e-006 xyz
    dof rx ry rz
  end
  begin
    id 25
    name LeftToes
    direction 0.00818058 -0.00485161 0.999955
    length 3.85048
    axis 1.06247e-005 4.65869e-005 -8.65513e-006 xyz
    dof rx ry rz
  end
:hierarchy
  begin
    root RightUpLegDummy SpineDummy LeftUpLegDummy
    RightUpLegDummy RightUpLeg
    RightUpLeg RightLeg
    RightLeg RightFoot
    RightFoot RightToes
    SpineDummy Spine
    Spine Spine1
    Spine1 HEadDummy LeftShoulder1Dummy RightShoulderDummy
    HEadDummy HEad
    LeftShoulder1Dummy LeftShoulder1
    LeftShoulder1 LeftArm
    LeftArm LeftForeArm
    LeftForeArm LeftHand
    RightShoulderDummy RightShoulder
    RightShoulder RightArm
    RightArm RightForeArm
    RightForeArm RightHand
    LeftUpLegDummy LeftUpLeg
    LeftUpLeg LeftLeg
    LeftLeg LeftFoot
    LeftFoot LeftToes
  end

:SAMPLES-PER-SECOND 30
:FULLY-SPECIFIED
:DEGREES
116
root  0.0442997 33.6732 10.1814 -4.41835 -57.5378 5.12474
RightUpLeg  -10.0014 8.02431 -2.7695
RightLeg  34.2027 -3.00455 -1.78301
RightFoot  -0.4065 -0.00185197 -0.144761
RightToes  -41.2832 -0.228814 -0.322256
Spine  1.37292 -3.97536 -2.33473
Spine1  2.07598 -8.08461 -4.80656
HEad  -25.4065 -28.0548 18.1228
LeftShoulder1  0 -2.42657e-020 -4.95415e-022
LeftArm  125.647 -80.2702 146.39
LeftForeArm  25.3347 -68.5343 -26.7955
LeftHand  -0.262368 -2.31292 12.6094
RightShoulder  0 2.42657e-020 1.07489e-018
RightArm  -99.7413 60.052 -22.3091
RightForeArm  121.626 74.968 40.8171
RightHand  -4.72456 5.70547 -78.9345
LeftUpLeg  -2.99081 -1.6815 0.182744
LeftLeg  31.1325 -9.29074 -4.79779
LeftFoot  0.662078 0.00127552 -0.220773
LeftToes  -35.9943 1.33192e-006 1.13262e-007
117
root  -1.44299 36.7448 10.2294 -1.39819 -54.6468 3.86256
RightUpLeg  -1.39475 3.82928 -1.95362
RightLeg  14.5289 0.34521 0.0667984
RightFoot  25.1312 0.0969356 -0.0573382
RightToes  -46.2192 -0.269972 -0.347492
Spine  -0.46882 -4.11931 -2.35698
Spine1  -1.23404 -8.52036 -4.84432
HEad  -27.1445 -29.5907 17.4357
LeftShoulder1  0 -2.42657e-020 -4.95415e-022
LeftArm  116.417 -77.8979 155.747
LeftForeArm  31.2406 -70.8766 -30.7738
LeftHand  -0.36723 -2.96501 13.7797
RightShoulder  0 2.42657e-020 1.07489e-018
RightArm  -97.5958 57.6946 -18.7785
RightForeArm  137.96 78.3059 58.1661
RightHand  -4.65701 5.6036 -79.14
LeftUpLeg  3.55074 1.93105 2.75148
LeftLeg  12.8999 -14.567 -2.33884
LeftFoot  22.3189 1.15674 -5.85885
LeftToes  -16.0857 1.33192e-006 1.13262e-007
118
root  -2.49863 39.3771 10.1575 1.50638 -52.7796 4.1665
RightUpLeg  -1.05527 0.805322 -2.59284
RightLeg  6.57937 5.50961 0.280076
RightFoot  39.4116 -1.05835 3.33184
RightToes  -36.608 -0.191969 -0.29517
Spine  -2.27819 -4.05296 -2.92085
Spine1  -4.5558 -8.47811 -5.55598
HEad  -28.7654 -30.1825 18.053
LeftShoulder1  0 -2.42657e-020 -4.95415e-022
LeftArm  120.107 -74.1575 152.724
LeftForeArm  30.9434 -69.6398 -28.5513
LeftHand  -0.419254 -3.43717 13.5619
RightShoulder  0 2.42657e-020 1.07489e-018
RightArm  -98.2632 54.2286 -18.1809
RightForeArm  145.656 79.1975 67.3022
RightHand  -4.44735 5.3194 -79.4826
LeftUpLeg  2.45589 4.52248 2.91326
LeftLeg  7.35778 -11.2872 -0.721275
LeftFoot  24.3683 1.04457 -4.8351
LeftToes  -16.0557 1.33192e-006 1.13262e-007
119
root  -3.471 41.5546 10.0592 1.7977 -50.9887 4.39792
RightUpLeg  -0.407086 2.72877 -2.5189
RightLeg  6.12731 4.70788 0.20232
RightFoot  33.3788 -0.616968 2.43514
RightToes  -33.9245 -0.171859 -0.278296
Spine  -2.83881 -4.09055 -3.21685
Spine1  -5.59152 -8.57446 -6.09654
HEad  -30.7919 -30.8644 17.967
LeftShoulder1  0 -2.42657e-020 -4.95415e-022
LeftArm  124.827 -72.4796 149.073
LeftForeArm  27.5344 -67.4849 -25.3174
LeftHand  -0.388683 -3.08131 14.0369
RightShoulder  0 2.42657e-020 1.07489e-018
RightArm  -99.1747 53.2305 -17.8253
RightForeArm  142.135 79.0827 65.9464
RightHand  -4.62392 5.58959 -78.8794
LeftUpLeg  2.37035 3.8408 2.4889
LeftLeg  7.0592 -6.57001 -0.387687
LeftFoot  16.0719 0.269835 -1.91111
LeftToes  -8.83412 1.33192e-006 1.13262e-007
120
root  -4.48589 43.3705 9.98323 1.7749 -49.592 2.90324
RightUpLeg  1.86617 4.3904 -1.04835
RightLeg  6.83353 1.36346 0.0763976
RightFoot  27.814 -0.0213779 0.463876
RightToes  -31.4738 -0.1542 -0.262078
Spine  -2.441 -4.00339 -3.17485
Spine1  -4.80057 -8.43192 -6.08413
HEad  -33.0154 -31.545 18.5597
LeftShoulder1  0 -2.42657e-020 -4.95415e-022
LeftArm  125.017 -70.6739 149.677
LeftForeArm  25.2917 -63.7658 -21.0641
LeftHand  -0.429999 -3.42698 13.9575
RightShoulder  0 2.42657e-020 1.07489e-018
RightArm  -99.9105 52.4502 -16.0021
RightForeArm  139.149 78.7967 62.7533
RightHand  -4.63375 5.61749 -78.718
LeftUpLeg  4.0844 3.23103 3.11661
LeftLeg  7.54219 -3.4291 -0.232121
LeftFoot  11.0022 0.0713382 -0.740724
LeftToes  -4.08792 1.33192e-006 1.13262e-007
121
root  -5.42673 44.7479 9.93295 1.40115 -48.4408 2.02223
RightUpLeg  3.01013 2.93255 -0.612303
RightLeg  9.48637 1.16901 0.120188
RightFoot  24.3736 0.0147949 0.309035
RightToes  -30.0387 -0.144187 -0.252235
Spine  -2.15727 -3.94955 -2.90628
Spine1  -4.24006 -8.30935 -5.98012
HEad  -34.703 -31.9629 18.1792
LeftShoulder1  0 -2.42657e-020 -4.95415e-022
LeftArm  124.726 -69.4279 149.632
LeftForeArm  23.8858 -59.2615 -17.312
LeftHand  -0.465163 -3.76179 13.7485
RightShoulder  0 2.42657e-020 1.07489e-018
RightArm  -100.196 52.7501 -14.9289
RightForeArm  127.514 77.1792 50.6229
RightHand  -4.82299 5.93721 -77.8508
LeftUpLeg  4.06106 3.45309 3.20903
LeftLeg  11.3659 -0.937613 -0.127815
LeftFoot  9.01002 0.0187422 -0.237885
LeftToes  -4.24059 1.33192e-006 1.13262e-007
122
root  -6.38145 45.665 9.83781 1.04572 -47.672 0.915253
RightUpLeg  2.59337 2.49328 0.0508889
RightLeg  15.0435 0.746928 0.150586
RightFoot  25.1807 0.0552768 0.130056
RightToes  -30.2459 -0.145618 -0.253671
Spine  -1.7194 -3.89582 -2.72774
Spine1  -3.43095 -8.20189 -5.63318
HEad  -35.7931 -31.8297 18.1466
LeftShoulder1  0 -2.42657e-020 -4.95415e-022
LeftArm  124.392 -68.0073 148.598
LeftForeArm  22.6252 -53.1201 -13.6259
LeftHand  -0.492551 -4.67519 11.669
RightShoulder  0 2.42657e-020 1.07489e-018
RightArm  -102.503 53.7768 -15.9704
RightForeArm  110.38 71.794 32.2473
RightHand  -5.37908 6.78301 -76.4899
LeftUpLeg  3.51651 5.11989 3.84893
LeftLeg  16.4365 0.838094 0.187785
LeftFoot  7.54089 -0.000675006 0.0102335
LeftToes  -5.89243 1.33192e-006 1.13262e-007
123
root  -7.29228 46.1166 9.74581 0.617645 -47.1629 0.304626
RightUpLeg  2.19959 1.45419 -0.0368546
RightLeg  19.05 2.20155 0.603997
RightFoot  28.4175 -0.108788 0.807176
RightToes  -31.9071 -0.157272 -0.265
Spine  -1.39443 -3.92905 -2.57159
Spine1  -2.80215 -8.46782 -5.25003
HEad  -36.7585 -31.6554 18.6117
LeftShoulder1  0 -2.42657e-020 -4.95415e-022
LeftArm  127.635 -66.602 145.161
LeftForeArm  18.1893 -45.2005 -10.2374
LeftHand  -0.233808 -3.12098 8.21479
RightShoulder  0 2.42657e-020 1.07489e-018
RightArm  -113.57 55.4488 -26.3804
RightForeArm  95.0561 53.0181 13.3754
RightHand  -6.53435 8.83193 -72.6133
LeftUpLeg  3.21386 7.73585 4.41413
LeftLeg  19.9173 1.74797 0.506561
LeftFoot  6.47988 -0.00569258 0.0524293
LeftToes  -4.30719 1.33192e-006 1.13262e-007
124
root  -8.18775 46.2113 9.68474 0.325638 -46.369 -0.128189
RightUpLeg  3.32069 -0.413386 -0.65151
RightLeg  18.8052 4.23497 1.1427
RightFoot  32.0143 -0.46776 2.00791
RightToes  -34.7463 -0.177933 -0.283564
Spine  -0.82113 -3.57392 -2.25939
Spine1  -2.02227 -7.72276 -5.04212
HEad  -36.7948 -31.3993 18.7384
LeftShoulder1  0 -2.42657e-020 -4.95415e-022
LeftArm  127.058 -64.4574 144.602
LeftForeArm  10.1664 -38.8771 -8.1673
LeftHand  0.0353683 1.07924 3.36228
RightShoulder  0 2.42657e-020 1.07489e-018
RightArm  -128.506 52.1759 -45.896
RightForeArm  83.901 23.9673 4.37606
RightHand  -8.22557 13.8063 -61.067
LeftUpLeg  4.16278 9.94826 4.76672
LeftLeg  19.4575 2.9748 0.837692
LeftFoot  6.4827 -0.0131684 0.145188
LeftToes  -2.00723 1.33192e-006 1.13262e-007
125
root  -9.04471 45.921 9.60655 0.527496 -45.1091 -0.716675
RightUpLeg  5.04898 -2.65565 -1.25829
RightLeg  15.735 5.1981 1.10888
RightFoot  34.2105 -0.715343 2.7017
RightToes  -35.5706 -0.184101 -0.288759
Spine  -0.356274 -3.09224 -1.94943
Spine1  -1.54652 -6.54919 -5.05902
HEad  -37.0878 -31.4712 18.3364
LeftShoulder1  0 -2.42657e-020 -4.95415e-022
LeftArm  123.315 -63.4527 147.71
LeftForeArm  1.27557 -36.4736 -7.47114
LeftHand  0.0899007 3.74328 2.37623
RightShoulder  0 2.42657e-020 1.07489e-018
RightArm  -140.429 48.2485 -57.7055
RightForeArm  79.4305 11.7628 2.0078
RightHand  -6.47072 23.2002 -30.4306
LeftUpLeg  5.98618 12.6519 5.29357
LeftLeg  14.8512 2.67923 0.527081
LeftFoot  9.19178 -0.016096 0.200225
LeftToes  -0.782743 1.33192e-006 1.13262e-007
